# xmcd CD database file
#
# Track frame offsets:
#	150
#	20780
#	42037
#	63412
#	76025
#	98690
#	115577
#	137100
#	152310
#	168985
#	186125
#
# Disc length: 2780 seconds
#
# Revision: 0
# Processed by: cddbd v1.5PL3 Copyright (c) Steve Scherf et al.
# Submitted via: CDex 1.51
#
DISCID=7b0ada0b
DTITLE=Hits On Tv - V.A.
DYEAR=1991
DGENRE=Other
TTITLE0=YOU LIGHT THE WAY
TTITLE1=好き
TTITLE2=ZIZE
TTITLE3=HELLO, FULL MOON
TTITLE4=GACHOOOOON
TTITLE5=O・ZONE
TTITLE6=MYSTERY WOMAN
TTITLE7=LOVE AND LOVE AGAIN
TTITLE8=星屑の街
TTITLE9=TiS is MAGIC
TTITLE10=気にすんなよ！
EXTD=YEAR: 1991
EXTT0=
EXTT1=
EXTT2=
EXTT3=
EXTT4=
EXTT5=
EXTT6=
EXTT7=
EXTT8=
EXTT9=
EXTT10=
PLAYORDER=
